<svg width="583" height="307" viewBox="0 0 583 307" fill="none" xmlns="http://www.w3.org/2000/svg">
<path fill-rule="evenodd" clip-rule="evenodd" d="M185.838 159.372H176.065V100.116H199.519C206.33 100.116 211.572 101.7 215.244 104.869C218.916 108.037 220.752 112.701 220.752 118.861C220.752 125.02 218.901 129.773 215.199 133.12C211.498 136.466 206.271 138.139 199.519 138.139H185.838V159.372ZM198.275 129.788C202.954 129.788 206.167 128.826 207.914 126.901C209.662 124.976 210.535 122.414 210.535 119.216C210.535 115.899 209.662 113.264 207.914 111.309C206.167 109.355 202.954 108.378 198.275 108.378H185.838V129.788H198.275ZM232.034 159.372V100.116H241.274V159.372H232.034ZM273.7 113.797C278.556 113.797 282.687 114.967 286.093 117.306C289.498 119.646 291.172 123.421 291.112 128.633V149.955C291.112 153.982 289.336 156.78 285.782 158.35C282.228 159.919 277.165 160.704 270.591 160.704C265.319 160.704 260.966 159.608 257.531 157.417C254.096 155.226 252.378 151.554 252.378 146.401C252.378 141.544 253.785 137.902 256.598 135.474C259.412 133.045 263.394 131.831 268.547 131.831C273.878 131.831 278.32 132.897 281.873 135.03V130.765C281.873 124.724 278.231 121.704 270.946 121.704C268.34 121.704 265.734 122.103 263.128 122.903C260.522 123.703 258.36 124.813 256.643 126.234V117.528C258.301 116.462 260.715 115.574 263.883 114.863C267.052 114.152 270.324 113.797 273.7 113.797ZM271.657 153.419C275.388 153.419 278.023 153.153 279.563 152.62C281.103 152.087 281.873 151.021 281.873 149.422V140.804C278.853 139.501 275.536 138.85 271.923 138.85C268.547 138.85 265.986 139.442 264.238 140.626C262.491 141.811 261.618 143.588 261.618 145.957C261.618 148.444 262.61 150.31 264.594 151.554C266.578 152.797 268.932 153.419 271.657 153.419ZM342.817 114.774L324.427 162.126C320.637 171.779 315.514 176.606 309.058 176.606C306.748 176.606 304.794 176.251 303.195 175.54V167.545C304.675 168.137 306.156 168.433 307.636 168.433C309.946 168.433 311.768 167.663 313.1 166.123C314.433 164.583 315.573 162.244 316.52 159.105L298.308 114.774H308.88L321.051 148.089L333.133 114.774H342.817ZM399.941 113.797C406.159 113.797 410.705 115.1 413.577 117.706C416.45 120.312 417.886 124.369 417.886 129.877V159.372H408.558V131.121C408.558 124.902 405.034 121.793 397.986 121.793C394.847 121.793 391.975 122.592 389.369 124.191C389.783 125.79 389.991 127.686 389.991 129.877V159.372H380.662V131.121C380.662 124.902 377.138 121.793 370.09 121.793C366.892 121.793 363.753 122.355 360.674 123.48V159.372H351.345V118.417C354.011 117.054 357.253 115.944 361.073 115.085C364.893 114.226 368.551 113.797 372.045 113.797C377.849 113.797 382.173 114.922 385.016 117.173C389.813 114.922 394.788 113.797 399.941 113.797ZM449.424 113.708C456.354 113.708 461.432 115.944 464.66 120.416C467.888 124.887 469.472 131.15 469.413 139.205H438.141C438.438 143.588 439.726 146.919 442.006 149.199C444.286 151.48 447.529 152.62 451.734 152.62C454.458 152.62 457.064 152.279 459.552 151.598C462.039 150.917 464.231 150.043 466.126 148.977V157.684C461.506 159.697 456.205 160.704 450.224 160.704C443.531 160.704 438.275 158.676 434.455 154.619C430.634 150.562 428.724 144.802 428.724 137.339C428.724 129.699 430.531 123.851 434.144 119.794C437.756 115.737 442.85 113.708 449.424 113.708ZM449.157 121.348C446.018 121.348 443.561 122.177 441.784 123.836C440.007 125.494 438.852 128.307 438.319 132.276H459.907C459.492 128.485 458.426 125.716 456.709 123.969C454.991 122.222 452.474 121.348 449.157 121.348ZM480.162 118.417C482.828 117.054 486.07 115.944 489.89 115.085C493.71 114.226 497.368 113.797 500.862 113.797C507.081 113.797 511.671 115.1 514.632 117.706C517.593 120.312 519.074 124.369 519.074 129.877V159.372H509.746V131.121C509.746 124.902 506.222 121.793 499.174 121.793C495.798 121.793 492.57 122.355 489.491 123.48V159.372H480.162V118.417ZM548.124 160.526C544.038 160.526 540.84 159.431 538.53 157.239C536.22 155.048 535.065 151.939 535.065 147.911V122.503H527.869V114.774H535.065V102.337H544.66V114.774H555.498V122.503H544.66V146.046C544.66 148.237 545.045 149.821 545.815 150.799C546.585 151.776 547.947 152.264 549.901 152.264C550.849 152.264 551.841 152.131 552.877 151.865C553.914 151.598 554.787 151.258 555.498 150.843V159.105C553.425 160.053 550.967 160.526 548.124 160.526Z" fill="white"/>
<path d="M139.049 80.4033H35.4033V184.049H139.049V80.4033Z" fill="white"/>
<path d="M139.049 191.452H35.4033C31.2081 191.452 28 188.244 28 184.049V80.4033C28 76.2081 31.2081 73 35.4033 73H139.049C143.244 73 146.452 76.2081 146.452 80.4033V184.049C146.452 188.244 142.998 191.452 139.049 191.452ZM74.8874 137.162L89.694 129.758L74.8874 122.355V137.162ZM92.2007 105.737L63.9699 88.8125C58.8884 85.8944 52.6776 89.6879 52.6776 95.524V129.373V176.646L63.9699 169.934V156.511V143.088V115.95V102.527L75.2622 109.239L97.8468 122.662L109.139 129.373L75.2622 149.508V162.931L92.2007 152.718L120.431 135.793C125.513 132.875 125.513 125.288 120.431 122.37C113.374 118.577 92.2007 105.737 92.2007 105.737Z" fill="#0050FF"/>
<path d="M178.14 198.542H181.216V207.911C181.907 207.009 182.733 206.323 183.694 205.855C184.655 205.374 185.698 205.134 186.823 205.134C189.167 205.134 191.065 205.943 192.519 207.56C193.983 209.165 194.716 211.538 194.716 214.679C194.716 217.656 193.995 220.128 192.554 222.097C191.112 224.066 189.114 225.05 186.56 225.05C185.13 225.05 183.923 224.704 182.939 224.013C182.353 223.603 181.726 222.947 181.058 222.044V224.452H178.14V198.542ZM186.366 222.255C188.077 222.255 189.355 221.575 190.198 220.216C191.054 218.857 191.482 217.064 191.482 214.837C191.482 212.857 191.054 211.216 190.198 209.915C189.355 208.615 188.107 207.964 186.454 207.964C185.013 207.964 183.747 208.497 182.657 209.564C181.579 210.63 181.04 212.388 181.04 214.837C181.04 216.607 181.263 218.042 181.708 219.144C182.54 221.218 184.093 222.255 186.366 222.255ZM210.185 205.626H213.683C213.237 206.833 212.247 209.587 210.712 213.888C209.564 217.122 208.603 219.759 207.829 221.798C206.001 226.603 204.712 229.532 203.962 230.587C203.212 231.642 201.923 232.169 200.095 232.169C199.649 232.169 199.304 232.152 199.058 232.116C198.823 232.081 198.53 232.017 198.179 231.923V229.04C198.73 229.193 199.128 229.286 199.374 229.322C199.62 229.357 199.837 229.374 200.024 229.374C200.61 229.374 201.038 229.275 201.308 229.075C201.589 228.888 201.823 228.654 202.011 228.372C202.069 228.279 202.28 227.798 202.644 226.931C203.007 226.064 203.271 225.419 203.435 224.997L196.474 205.626H200.06L205.105 220.954L210.185 205.626ZM245.024 198.63V201.706H236.323V224.452H232.773V201.706H224.071V198.63H245.024ZM248.575 198.63H267.401V201.794H251.985V209.634H266.241V212.622H251.985V221.376H267.665V224.452H248.575V198.63ZM272.253 198.63H275.751V221.376H288.829V224.452H272.253V198.63ZM296.089 198.63V214.591C296.089 216.466 296.44 218.025 297.144 219.267C298.187 221.142 299.944 222.079 302.417 222.079C305.382 222.079 307.398 221.066 308.464 219.038C309.038 217.937 309.325 216.454 309.325 214.591V198.63H312.876V213.132C312.876 216.308 312.448 218.751 311.593 220.462C310.023 223.579 307.058 225.138 302.698 225.138C298.339 225.138 295.38 223.579 293.821 220.462C292.966 218.751 292.538 216.308 292.538 213.132V198.63H296.089ZM320.593 216.12C320.675 217.585 321.021 218.775 321.63 219.689C322.79 221.4 324.835 222.255 327.765 222.255C329.077 222.255 330.273 222.068 331.351 221.693C333.437 220.966 334.48 219.665 334.48 217.79C334.48 216.384 334.04 215.382 333.161 214.784C332.271 214.198 330.876 213.689 328.978 213.255L325.48 212.464C323.194 211.948 321.577 211.38 320.628 210.759C318.987 209.681 318.167 208.07 318.167 205.925C318.167 203.605 318.97 201.7 320.575 200.212C322.181 198.724 324.454 197.98 327.396 197.98C330.103 197.98 332.399 198.636 334.286 199.948C336.185 201.249 337.134 203.335 337.134 206.206H333.847C333.671 204.823 333.296 203.763 332.722 203.025C331.655 201.677 329.845 201.003 327.29 201.003C325.228 201.003 323.745 201.437 322.843 202.304C321.94 203.171 321.489 204.179 321.489 205.327C321.489 206.593 322.017 207.519 323.071 208.105C323.763 208.48 325.327 208.948 327.765 209.511L331.386 210.337C333.132 210.736 334.48 211.281 335.429 211.972C337.069 213.179 337.89 214.931 337.89 217.228C337.89 220.087 336.847 222.132 334.761 223.363C332.687 224.593 330.273 225.208 327.519 225.208C324.308 225.208 321.794 224.388 319.978 222.747C318.161 221.118 317.271 218.909 317.306 216.12H320.593ZM353.13 198.63H356.663V224.452H353.13V198.63ZM361.937 205.626H364.942V208.298C365.833 207.197 366.776 206.406 367.773 205.925C368.769 205.445 369.876 205.204 371.095 205.204C373.767 205.204 375.571 206.136 376.509 207.999C377.024 209.019 377.282 210.478 377.282 212.376V224.452H374.065V212.587C374.065 211.439 373.896 210.513 373.556 209.81C372.993 208.638 371.974 208.052 370.497 208.052C369.747 208.052 369.132 208.128 368.651 208.281C367.784 208.538 367.023 209.054 366.366 209.827C365.839 210.448 365.493 211.093 365.329 211.761C365.177 212.417 365.101 213.361 365.101 214.591V224.452H361.937V205.626ZM382.608 200.37H385.808V205.626H388.814V208.21H385.808V220.497C385.808 221.154 386.03 221.593 386.476 221.816C386.722 221.945 387.132 222.009 387.706 222.009C387.858 222.009 388.023 222.009 388.198 222.009C388.374 221.997 388.579 221.98 388.814 221.956V224.452C388.45 224.558 388.069 224.634 387.671 224.681C387.284 224.728 386.862 224.751 386.405 224.751C384.929 224.751 383.927 224.376 383.399 223.626C382.872 222.865 382.608 221.88 382.608 220.673V208.21H380.06V205.626H382.608V200.37ZM399.835 205.204C401.171 205.204 402.466 205.521 403.72 206.154C404.974 206.775 405.929 207.583 406.585 208.579C407.218 209.529 407.64 210.636 407.851 211.902C408.038 212.769 408.132 214.152 408.132 216.05H394.333C394.392 217.96 394.843 219.495 395.687 220.656C396.53 221.804 397.837 222.378 399.607 222.378C401.259 222.378 402.577 221.833 403.562 220.743C404.124 220.111 404.523 219.378 404.757 218.546H407.868C407.786 219.238 407.511 220.011 407.042 220.866C406.585 221.71 406.069 222.402 405.495 222.941C404.534 223.878 403.345 224.511 401.927 224.839C401.165 225.027 400.304 225.12 399.343 225.12C396.999 225.12 395.013 224.271 393.384 222.572C391.755 220.861 390.94 218.47 390.94 215.4C390.94 212.376 391.761 209.921 393.401 208.034C395.042 206.148 397.187 205.204 399.835 205.204ZM404.88 213.536C404.751 212.165 404.452 211.07 403.983 210.249C403.116 208.726 401.669 207.964 399.642 207.964C398.189 207.964 396.97 208.491 395.985 209.546C395.001 210.589 394.48 211.919 394.421 213.536H404.88ZM412.122 205.626H415.128V208.878C415.374 208.245 415.978 207.478 416.939 206.575C417.899 205.661 419.007 205.204 420.261 205.204C420.319 205.204 420.419 205.21 420.56 205.222C420.7 205.234 420.94 205.257 421.28 205.292V208.632C421.093 208.597 420.917 208.573 420.753 208.562C420.601 208.55 420.431 208.544 420.243 208.544C418.649 208.544 417.425 209.06 416.569 210.091C415.714 211.111 415.286 212.288 415.286 213.624V224.452H412.122V205.626ZM424.023 205.626H427.028V208.298C427.919 207.197 428.862 206.406 429.858 205.925C430.855 205.445 431.962 205.204 433.181 205.204C435.853 205.204 437.657 206.136 438.595 207.999C439.11 209.019 439.368 210.478 439.368 212.376V224.452H436.151V212.587C436.151 211.439 435.982 210.513 435.642 209.81C435.079 208.638 434.06 208.052 432.583 208.052C431.833 208.052 431.218 208.128 430.737 208.281C429.87 208.538 429.108 209.054 428.452 209.827C427.925 210.448 427.579 211.093 427.415 211.761C427.263 212.417 427.187 213.361 427.187 214.591V224.452H424.023V205.626ZM446.487 219.443C446.487 220.357 446.821 221.077 447.489 221.605C448.157 222.132 448.948 222.396 449.862 222.396C450.976 222.396 452.054 222.138 453.097 221.622C454.855 220.767 455.733 219.366 455.733 217.421V214.872C455.347 215.118 454.849 215.323 454.239 215.488C453.63 215.652 453.032 215.769 452.446 215.839L450.53 216.085C449.382 216.238 448.521 216.478 447.946 216.806C446.974 217.357 446.487 218.236 446.487 219.443ZM454.151 213.044C454.878 212.95 455.364 212.646 455.61 212.13C455.751 211.849 455.821 211.445 455.821 210.917C455.821 209.839 455.435 209.06 454.661 208.579C453.899 208.087 452.804 207.841 451.374 207.841C449.722 207.841 448.55 208.286 447.858 209.177C447.472 209.669 447.22 210.402 447.103 211.374H444.149C444.208 209.054 444.958 207.443 446.399 206.54C447.853 205.626 449.534 205.169 451.444 205.169C453.659 205.169 455.458 205.591 456.841 206.435C458.212 207.279 458.898 208.591 458.898 210.372V221.218C458.898 221.546 458.962 221.81 459.091 222.009C459.232 222.208 459.519 222.308 459.952 222.308C460.093 222.308 460.251 222.302 460.427 222.29C460.603 222.267 460.79 222.238 460.989 222.202V224.54C460.497 224.681 460.122 224.769 459.864 224.804C459.607 224.839 459.255 224.857 458.81 224.857C457.72 224.857 456.929 224.47 456.437 223.697C456.179 223.286 455.997 222.706 455.892 221.956C455.247 222.8 454.321 223.532 453.114 224.154C451.907 224.775 450.577 225.085 449.124 225.085C447.378 225.085 445.948 224.558 444.835 223.503C443.733 222.437 443.183 221.107 443.183 219.513C443.183 217.767 443.728 216.413 444.817 215.452C445.907 214.491 447.337 213.9 449.107 213.677L454.151 213.044ZM464.733 200.37H467.933V205.626H470.939V208.21H467.933V220.497C467.933 221.154 468.155 221.593 468.601 221.816C468.847 221.945 469.257 222.009 469.831 222.009C469.983 222.009 470.148 222.009 470.323 222.009C470.499 221.997 470.704 221.98 470.939 221.956V224.452C470.575 224.558 470.194 224.634 469.796 224.681C469.409 224.728 468.987 224.751 468.53 224.751C467.054 224.751 466.052 224.376 465.524 223.626C464.997 222.865 464.733 221.88 464.733 220.673V208.21H462.185V205.626H464.733V200.37ZM474.12 205.714H477.337V224.452H474.12V205.714ZM474.12 198.63H477.337V202.216H474.12V198.63ZM489.607 222.413C491.704 222.413 493.14 221.622 493.913 220.04C494.698 218.447 495.091 216.677 495.091 214.732C495.091 212.974 494.81 211.544 494.247 210.443C493.357 208.708 491.821 207.841 489.642 207.841C487.708 207.841 486.302 208.579 485.423 210.056C484.544 211.532 484.105 213.314 484.105 215.4C484.105 217.404 484.544 219.073 485.423 220.409C486.302 221.745 487.696 222.413 489.607 222.413ZM489.73 205.081C492.155 205.081 494.206 205.89 495.882 207.507C497.558 209.124 498.396 211.503 498.396 214.644C498.396 217.679 497.657 220.187 496.181 222.167C494.704 224.148 492.413 225.138 489.308 225.138C486.718 225.138 484.661 224.265 483.138 222.519C481.614 220.761 480.853 218.406 480.853 215.452C480.853 212.288 481.655 209.769 483.261 207.894C484.866 206.019 487.023 205.081 489.73 205.081ZM502.175 205.626H505.181V208.298C506.071 207.197 507.015 206.406 508.011 205.925C509.007 205.445 510.114 205.204 511.333 205.204C514.005 205.204 515.81 206.136 516.747 207.999C517.263 209.019 517.521 210.478 517.521 212.376V224.452H514.304V212.587C514.304 211.439 514.134 210.513 513.794 209.81C513.232 208.638 512.212 208.052 510.735 208.052C509.985 208.052 509.37 208.128 508.89 208.281C508.023 208.538 507.261 209.054 506.605 209.827C506.077 210.448 505.732 211.093 505.567 211.761C505.415 212.417 505.339 213.361 505.339 214.591V224.452H502.175V205.626ZM524.64 219.443C524.64 220.357 524.974 221.077 525.642 221.605C526.31 222.132 527.101 222.396 528.015 222.396C529.128 222.396 530.206 222.138 531.249 221.622C533.007 220.767 533.886 219.366 533.886 217.421V214.872C533.499 215.118 533.001 215.323 532.392 215.488C531.782 215.652 531.185 215.769 530.599 215.839L528.683 216.085C527.534 216.238 526.673 216.478 526.099 216.806C525.126 217.357 524.64 218.236 524.64 219.443ZM532.304 213.044C533.03 212.95 533.517 212.646 533.763 212.13C533.903 211.849 533.974 211.445 533.974 210.917C533.974 209.839 533.587 209.06 532.814 208.579C532.052 208.087 530.956 207.841 529.526 207.841C527.874 207.841 526.702 208.286 526.011 209.177C525.624 209.669 525.372 210.402 525.255 211.374H522.302C522.36 209.054 523.11 207.443 524.552 206.54C526.005 205.626 527.687 205.169 529.597 205.169C531.812 205.169 533.61 205.591 534.993 206.435C536.364 207.279 537.05 208.591 537.05 210.372V221.218C537.05 221.546 537.114 221.81 537.243 222.009C537.384 222.208 537.671 222.308 538.105 222.308C538.245 222.308 538.403 222.302 538.579 222.29C538.755 222.267 538.942 222.238 539.142 222.202V224.54C538.649 224.681 538.274 224.769 538.017 224.804C537.759 224.839 537.407 224.857 536.962 224.857C535.872 224.857 535.081 224.47 534.589 223.697C534.331 223.286 534.149 222.706 534.044 221.956C533.399 222.8 532.474 223.532 531.267 224.154C530.06 224.775 528.73 225.085 527.276 225.085C525.53 225.085 524.101 224.558 522.987 223.503C521.886 222.437 521.335 221.107 521.335 219.513C521.335 217.767 521.88 216.413 522.97 215.452C524.06 214.491 525.489 213.9 527.259 213.677L532.304 213.044ZM542.341 198.63H545.505V224.452H542.341V198.63Z" fill="white"/>
</svg>
